<svg xmlns="http://www.w3.org/2000/svg" viewBox="0 0 1922 1082"><defs><style>.cls-1{fill:#c4c4c4;}.cls-1,.cls-2{stroke:#000;stroke-miterlimit:10;stroke-width:2px;}.cls-2{fill:#7670f0;}</style></defs><title>background-web2</title><g id="Calque_2" data-name="Calque 2"><rect class="cls-1" x="1" y="1" width="1920" height="1080"/></g><g id="Calque_1" data-name="Calque 1"><path class="cls-2" d="M489.68,3c1.42,6.8,3.44,15.81,6.21,26.33,1.74,6.58,5,18.54,9.42,31.64,10.15,29.83,16.55,40.49,20.83,46.85,6.11,9.06,14.49,17.32,31.26,33.84,18.08,17.81,27.35,26.86,39.07,33.84,14.31,8.53,27.37,12.71,36.47,15.62a183.67,183.67,0,0,0,33.86,7.8c19.69,2.56,35.07,1.15,46.88,0,17.45-1.7,17.42-3.44,33.86-5.2,15.57-1.67,31.07-3.32,49.49,0,10.81,1.95,25.44,9.11,54.7,23.42,17.49,8.57,25.85,13.48,31.25,23.43,3.3,6.07,4,11.19,5.21,20.83.48,3.71,2.53,20.91-2.6,44.25-2.72,12.36-6.27,21.06-10.42,31.23-6.06,14.85-9.1,22.3-15.63,31.24-5.22,7.15-12.16,13.44-26,26-5.81,5.26-10.9,9.88-18.23,15.61-13.56,10.61-18.58,12.37-26,18.23-15.06,11.8-22.32,26.35-26.05,33.83-3.44,6.89-15.69,32.33-10.42,65.08,4.71,29.3,20.92,48.68,26,54.66,10.85,12.65,17,13.87,31.25,31.24C818.84,623.47,825.9,632,830.89,644c9.48,22.79,5.54,43.6,0,72.88-4.59,24.27-7.21,37.13-18.23,49.46-8.1,9-16.87,13.51-31.26,20.82a181.34,181.34,0,0,1-44.28,15.62c-17.53,3.71-18,1.07-33.86,5.21-15,3.92-27.43,7.34-36.46,18.22-5.53,6.65-7.48,13.33-10.42,23.43-4.63,15.84-2,20.29-5.21,33.83A90.9,90.9,0,0,1,632.94,920c-9.2,11.3-18.35,16.76-33.87,26-19.82,11.83-30.83,18.41-46.88,20.82-19.46,2.92-34.57-2-52.09-7.81-21.84-7.18-39-17.55-57.31-28.63-16.76-10.14-19.41-13.29-31.25-18.22-12.39-5.16-22.32-7-41.68-10.41-23.09-4.1-34.64-6.15-46.88-5.21-9.42.72-27.15,2.09-44.28,13-13,8.32-20.15,19.54-33.86,41.65-15.35,24.76-15.15,31.14-31.26,54.66-13.36,19.53-21.41,26.7-31.25,31.24a55.66,55.66,0,0,1-28.65,5.21c-7.46-.75-8.74-2.59-18.24-5.21-6.57-1.81-23.35-6.43-41.67-2.6-13.91,2.9-23.83,9.66-28.65,13-10.09,7-11.86,11.48-26.05,20.83-6.58,4.33-13,7.93-20.84,7.8-8.51-.14-15-4.9-18.23-7.81V3H489.68Z" transform="translate(1 1)"/><path class="cls-2" d="M1920,302.73c-3.06-6.18-8.12-14.36-15.73-20a31.57,31.57,0,0,0-9-4.79c-3.25-1-9.3-2.76-16.45,0-10.57,4.07-12.2,13.63-21.93,20.67-8.29,6-15.7,5.27-27.42,4.14-15.74-1.53-27.61-7.86-35.65-12.41-39.38-22.31-40.22-32.42-68.54-45.48-8.7-4-20.43-6.8-43.87-12.4-11.32-2.7-17.42-3.77-24.68,0-11.61,6-18.07,20.22-21.93,28.94-3.36,7.58-5.79,15.33-13.71,62-5.48,32.25-5.35,34.66-8.23,45.48-4.84,18.18-9,33.95-19.19,45.47-3.62,4.11-11.6,8.31-27.42,16.54-18.21,9.47-18.21,8.28-24.68,12.4-17,10.87-28.08,26.26-32.9,33.08C1499.8,489,1490.1,502.72,1484,526c-1.29,4.95-10.83,43.27,0,82.69,5,18.13,12.68,30.7,19.2,41.34,10.32,16.86,18.38,23.74,27.42,45.48,4.78,11.52,6.94,20.22,5.48,28.94-.79,4.68-2.68,9.78-8.23,16.54-10.6,12.91-17,10.54-32.9,20.67-10.62,6.78-8.8,8.51-30.16,24.81-14.47,11-13.91,9.17-16.45,12.4-13,16.45-13.35,46.78-13.71,74.42-.36,28.18,2.66,39,0,70.28-1.32,15.57-2.89,22.53-5.48,28.94-7.26,17.93-19.77,24.76-27.42,28.94-3,1.66-8,4-32.9,8.27s-22.05,2.2-27.42,4.13c-18.47,6.65-40.93,26.37-43.87,53.75h0a15.22,15.22,0,0,0-.49,6,14,14,0,0,0,.49,2.25l622.4.53h0Z" transform="translate(1 1)"/></g></svg>