<?xml version="1.0" encoding="utf-8"?>
<!-- Generator: Adobe Illustrator 24.0.1, SVG Export Plug-In . SVG Version: 6.00 Build 0)  -->
<svg version="1.1" id="Calque_1" xmlns="http://www.w3.org/2000/svg" xmlns:xlink="http://www.w3.org/1999/xlink" x="0px" y="0px"
	 viewBox="0 0 2048 2732" style="enable-background:new 0 0 2048 2732;" xml:space="preserve">
<style type="text/css">
	.st0{fill:#C4C4C4;stroke:#000000;stroke-miterlimit:10;}
	.st1{fill:#7670F0;stroke:#000000;stroke-width:5;stroke-miterlimit:10;}
</style>
<path class="st0" d="M0.5,655.23c0-218.24,0-436.49,0-654.73c682.67,0,1365.33,0,2048,0c0,699.01,0,1398.02,0,2097.03
	c0,211.66,0,423.31,0,634.97c-682.67,0-1365.33,0-2048,0"/>
<path class="st1" d="M0.5,688.5c12.06,3.1,130.5,35.39,163,132c20.96,62.29,0.32,134.56-8,165c-16.86,61.7-32.89,57.15-47,110
	c-7.23,27.1-31.87,119.37,18,191c60.52,86.92,185.32,78.17,202,77c7.25-0.51,142.22-11.83,191-106c30.84-59.54-4.57-90.84,25-147
	c37.07-70.41,135.23-101.97,209-103c107.54-1.5,127.43,62.38,272,77c55.13,5.58,108.31,10.96,165-18
	c66.73-34.09,125.16-109.02,125-187c-0.14-69.5-46.7-82.63-37-136c13.43-73.86,106.19-68.27,147-158c38.07-83.71-2.31-177.3-8-190
	c-31.62-70.59-71.44-79.5-110-140c-29.56-46.38-57.61-123.76-36-255c-423.67,0-847.33,0-1271,0C0.5,229.83,0.5,459.17,0.5,688.5z"/>
<path class="st0" d="M1770.5,1848.5"/>
<path class="st1" d="M177.5,2618.5c32.18-81.27-44.39-147.28-7-224c32.63-66.95,130.81-98.51,206-92
	c106.89,9.26,119.11,91.3,216,103c111.04,13.41,224.99-78.64,282-161c82.52-119.2,26.89-190.83,114-301
	c46.56-58.88,143.36-140.76,239-125c116.06,19.13,135.24,166.36,216,162c73.92-3.99,148.67-132.27,158-254
	c13.66-178.23-120.63-242-84-374c30.38-109.47,160.05-200.09,249-183c58.55,11.25,77.89,65.02,194,114
	c37.04,15.62,68.65,24.32,88,29c0,473.33,0,946.67,0,1420c-682.67,0-1365.33,0-2048,0C67.48,2716.96,150.74,2686.08,177.5,2618.5z"
	/>
<path class="st1" d="M2390.5,1404.5"/>
</svg>
