<svg xmlns="http://www.w3.org/2000/svg" viewBox="0 0 1922 1082"><defs><style>.cls-1{fill:#c4c4c4;}.cls-1,.cls-2{stroke:#000;stroke-miterlimit:10;stroke-width:2px;}.cls-2{fill:#7670f0;}</style></defs><title>background-web</title><g id="Calque_2" data-name="Calque 2"><rect class="cls-1" x="1" y="1" width="1920" height="1080"/></g><g id="Calque_1" data-name="Calque 1"><path class="cls-2" d="M0,590.32c6.8-1.42,15.81-3.44,26.33-6.21,6.58-1.74,18.54-5,31.64-9.42,29.83-10.15,40.49-16.55,46.85-20.83,9.06-6.11,17.32-14.49,33.84-31.26,17.81-18.08,26.86-27.35,33.84-39.07,8.53-14.31,12.71-27.37,15.62-36.47a183.67,183.67,0,0,0,7.8-33.86c2.56-19.69,1.15-35.07,0-46.88-1.7-17.45-3.44-17.42-5.2-33.86-1.67-15.57-3.32-31.07,0-49.49,1.95-10.81,9.11-25.44,23.42-54.7,8.57-17.49,13.48-25.85,23.43-31.25,6.07-3.3,11.19-4,20.83-5.21,3.71-.48,20.91-2.53,44.25,2.6,12.36,2.72,21.06,6.27,31.23,10.42,14.85,6.06,22.3,9.1,31.24,15.63,7.15,5.22,13.44,12.16,26,26,5.26,5.81,9.88,10.9,15.61,18.23,10.61,13.56,12.37,18.58,18.23,26,11.8,15.06,26.35,22.32,33.83,26.05,6.89,3.44,32.33,15.69,65.08,10.42,29.3-4.71,48.68-20.92,54.66-26.05,12.65-10.85,13.87-16.95,31.24-31.25C620.47,261.16,629,254.1,641,249.11c22.79-9.48,43.6-5.54,72.88,0,24.27,4.59,37.13,7.21,49.46,18.23,9,8.1,13.51,16.87,20.82,31.26a181.34,181.34,0,0,1,15.62,44.28c3.71,17.53,1.07,18,5.21,33.86,3.92,15,7.34,27.43,18.22,36.46,6.65,5.53,13.33,7.48,23.43,10.42,15.84,4.63,20.29,2.05,33.83,5.21A90.9,90.9,0,0,1,917,447.06c11.3,9.2,16.76,18.35,26,33.87,11.83,19.82,18.41,30.83,20.82,46.88,2.92,19.46-2,34.57-7.81,52.09-7.18,21.84-17.55,39-28.63,57.31-10.14,16.76-13.29,19.41-18.22,31.25-5.16,12.39-7,22.32-10.41,41.68-4.1,23.09-6.15,34.64-5.21,46.88.72,9.42,2.09,27.15,13,44.28,8.32,13,19.54,20.15,41.65,33.86,24.76,15.35,31.14,15.15,54.66,31.26,19.53,13.36,26.7,21.41,31.24,31.25a55.66,55.66,0,0,1,5.21,28.65c-.75,7.46-2.59,8.74-5.21,18.24-1.81,6.57-6.43,23.35-2.6,41.67,2.9,13.91,9.66,23.83,13,28.65,7,10.09,11.48,11.86,20.83,26.05,4.33,6.58,7.93,13,7.8,20.84-.14,8.51-4.9,15-7.81,18.23H0V590.32Z" transform="translate(1 1)"/><path class="cls-2" d="M1404.68,0a44.27,44.27,0,0,0-13.33,15.73,39,39,0,0,0-3.19,9,35.3,35.3,0,0,0,0,16.45c2.71,10.57,9.08,12.2,13.77,21.93,4,8.29,3.51,15.7,2.75,27.42-1,15.74-5.23,27.61-8.26,35.65-14.86,39.38-21.6,40.22-30.29,68.54-2.67,8.7-4.54,20.43-8.26,43.87-1.8,11.32-2.51,17.42,0,24.68,4,11.61,13.46,18.07,19.27,21.93,5,3.36,10.21,5.79,41.31,13.71,21.48,5.48,23.09,5.35,30.29,8.23,12.12,4.84,22.62,9,30.3,19.19,2.73,3.62,5.53,11.6,11,27.42,6.31,18.21,5.51,18.21,8.26,24.68a110.48,110.48,0,0,0,22,32.9c8.41,8.92,17.55,18.62,33.05,24.68,3.3,1.29,28.82,10.83,55.07,0,12.08-5,20.46-12.68,27.54-19.2,11.23-10.32,15.81-18.38,30.3-27.42,7.67-4.78,13.46-6.94,19.27-5.48,3.12.78,6.52,2.68,11,8.23,8.6,10.59,7,17,13.77,32.9,4.51,10.62,5.67,8.8,16.52,30.16,7.35,14.47,6.11,13.91,8.26,16.45,11,13,31.16,13.35,49.57,13.71,18.78.36,26-2.66,46.81,0,10.38,1.32,15,2.89,19.28,5.48,11.94,7.26,16.49,19.77,19.28,27.42,1.1,3,2.69,8,5.51,32.9s1.46,22,2.75,27.42c4.43,18.47,17.56,40.93,35.8,43.87h0a6.94,6.94,0,0,0,4,.49,6.77,6.77,0,0,0,1.5-.49L1920,0H1404.68Z" transform="translate(1 1)"/><path class="cls-2" d="M1436.69,872.78a34.11,34.11,0,0,0-15.63,9.37l-.42.46c-1.38,1.59-4.32,5.67-9,18.29-6.1,16.64-9.37,28.12-9.37,28.12-1.65,5.79-2.58,9.61-6.25,12.5-4.7,3.7-10.57,3.26-12.5,3.12-7.63-.56-15.36-5.3-18.75-12.5-3-6.35-1.57-12.44,0-18.74,3-11.85,9.33-21,18.75-34.37,6.71-9.51,10.1-13.12,9.37-18.75-.68-5.25-4.67-10.1-9.37-12.5-6.52-3.33-14.76-1.18-31.25,3.12-6.19,1.62-11.18,3.24-18.75,3.13-5.72-.08-10.24-.15-12.49-3.13-3-3.9-.59-10.89,3.12-21.87,2.78-8.21,4.38-10.16,3.13-12.5-3-5.52-16.73-3.43-18.75-3.12-7.66,1.16-9.35,3.53-18.75,6.25-2.95.85-4.32,1.06-18.75,3.12-24,3.43-25.21,3.57-28.12,3.13-4.59-.7-17.87-2.72-21.87-12.5-3.57-8.72,2.57-17.94,3.12-18.75,4.82-7,12.27-9,25-12.5,8.76-2.38,14.37-3.9,21.87-3.12,11.12,1.14,12.78,5.93,25,9.37,5.49,1.55,18.41,5.19,31.25,0,11.21-4.53,24.08-16.5,21.87-28.12-1.43-7.48-8.56-12-9.38-12.5-6.37-3.92-13.29-3.28-15.62-3.12-25,1.66-59.16-16.94-62.49-18.75-6.24-3.4-24.38-13.57-37.5-34.37-10.74-17-23.44-49.68-9.37-65.62,5.24-5.94,12.29-7.4,21.87-9.37,21.26-4.39,38.89,1.39,53.12,6.25,16.54,5.64,34.06,11.62,50,28.12,4.7,4.86,19.28,20.32,25,43.74,2.82,11.53,2.67,21.66,9.38,40.62,3,8.4,6,14.76,12.49,18.75,1.09.66,10.5,6.58,18.75,3.13,7.23-3,9.56-11.55,12.5-21.88,8.69-30.53,13-45.8,15.62-50,13.41-21.7,37.22-27.08,46.87-28.12,3.55-.39,13-1.41,15.63,3.12,1.84,3.22-.61,7.86-3.13,12.5-4.13,7.6-8,10.17-15.62,18.75a190.77,190.77,0,0,0-12.5,15.62c-5.91,8.24-6.06,9.9-12.5,18.75-6,8.29-6.71,7.94-9.37,12.5-3.27,5.59-9.31,15.92-6.25,21.87,4.21,8.21,24.39,5.39,40.62,3.12,28.69-4,43-6,50-15.62,10.45-14.44-2.91-28.26,9.38-56.24,6.21-14.16,12.67-17.55,15.62-18.75,9.06-3.69,21.09-1.4,28.12,6.25,6.85,7.44,6.44,17.23,6.25,21.87-.31,7.63-2.62,9.43-9.37,28.12-3.94,10.9-5.91,16.46-6.25,21.88s-1,16.29,6.25,25c6.24,7.48,15.3,6.05,15.62,9.38.59,6.1-28.55,11.11-28.12,15.62s31.73,9.71,65.62,6.25c16.47-1.68,23.76-4.39,34.37,0,17.64,7.3,24.23,25.85,25,28.12,7.44,22-4.23,40.65-6.25,43.75a48.71,48.71,0,0,1-21.87,18.74c-20.75,8.72-40.16-1.28-43.74-3.12-3.4-1.75-1.62-1.38-18.75-15.62-12.5-10.4-19-15.75-28.12-21.88s-14.11-9.45-21.87-12.49c-8.51-3.34-21.42-8.2-34.38-3.13-5.07,2-8.16,3.2-9.37,6.25-3.4,8.58,13.45,18,18.75,40.62,1.29,5.52,2.44,10.43,0,12.5-3.35,2.84-11-1.75-43.75-18.75-6.8-3.53-14.36-7.37-25-9.37S1438.9,872.15,1436.69,872.78Z" transform="translate(1 1)"/></g></svg>