<svg xmlns="http://www.w3.org/2000/svg" viewBox="0 0 1922 1082"><defs><style>.cls-1{fill:#c4c4c4;}.cls-1,.cls-2{stroke:#000;stroke-miterlimit:10;stroke-width:2px;}.cls-2{fill:#7670f0;}</style></defs><title>background-web3</title><g id="Calque_2" data-name="Calque 2"><rect class="cls-1" x="1" y="1" width="1920" height="1080"/></g><g id="Calque_1" data-name="Calque 1"><path class="cls-2" d="M0,404.27c5.62,1.17,13.05,2.84,21.73,5.13,5.44,1.43,15.31,4.09,26.13,7.77,24.63,8.38,33.43,13.66,38.68,17.2,7.48,5,14.3,12,27.93,25.81,14.71,14.92,22.18,22.58,27.94,32.25,7,11.82,10.49,22.6,12.89,30.11a151.39,151.39,0,0,1,6.45,28c2.11,16.26.95,29,0,38.71-1.4,14.4-2.85,14.37-4.3,27.95-1.37,12.85-2.74,25.65,0,40.86,1.61,8.93,7.52,21,19.34,45.15,7.07,14.45,11.13,21.35,19.34,25.81,5,2.72,9.24,3.27,17.19,4.3,3.07.4,17.27,2.08,36.54-2.15,10.21-2.25,17.39-5.17,25.78-8.6,12.26-5,18.41-7.51,25.79-12.9,5.91-4.32,11.1-10,21.49-21.51,4.35-4.79,8.16-9,12.89-15.05,8.76-11.19,10.22-15.34,15.05-21.5,9.74-12.43,21.76-18.43,27.93-21.51,5.69-2.83,26.69-12.95,53.73-8.6,24.19,3.89,40.19,17.27,45.12,21.5,10.45,9,11.45,14,25.79,25.81,8.81,7.25,15.89,13.08,25.79,17.2,18.81,7.83,36,4.58,60.17,0,20-3.79,30.65-6,40.83-15.05,7.47-6.68,11.16-13.93,17.19-25.8a150,150,0,0,0,12.9-36.56c3.05-14.48.87-14.88,4.29-28,3.24-12.37,6.07-22.65,15-30.1,5.49-4.56,11-6.17,19.34-8.6,13.08-3.82,16.75-1.69,27.93-4.3A75.12,75.12,0,0,0,757,522.54c9.33-7.6,13.84-15.15,21.49-28,9.77-16.36,15.2-25.46,17.19-38.71,2.41-16.06-1.69-28.54-6.45-43-5.93-18-14.49-32.18-23.64-47.31-8.37-13.84-11-16-15-25.8-4.25-10.23-5.76-18.43-8.59-34.41-3.39-19.07-5.08-28.6-4.3-38.71.59-7.77,1.72-22.41,10.74-36.55,6.87-10.76,16.13-16.64,34.39-28,20.43-12.67,25.7-12.51,45.12-25.8,16.12-11,22-17.68,25.79-25.81a45.9,45.9,0,0,0,4.3-23.65c-.61-6.15-2.14-7.21-4.3-15.05-1.5-5.43-5.31-19.28-2.15-34.41a63.66,63.66,0,0,1,10.75-23.65c5.78-8.33,9.47-9.79,17.19-21.5,3.58-5.44,6.55-10.75,6.44-17.21-.11-7-4-12.36-6.45-15H0V404.27Z" transform="translate(1 1)"/><path class="cls-2" d="M1920,428a62.12,62.12,0,0,0-35.29-20.79,57.54,57.54,0,0,0-23.53,0c-15.12,3.42-17.45,11.43-31.37,17.33-11.85,5-22.45,4.42-39.21,3.46-22.51-1.28-39.5-6.58-51-10.39-56.33-18.7-57.53-27.18-98-38.12-12.44-3.36-29.2-5.7-62.74-10.39-16.18-2.27-24.91-3.16-35.29,0-16.61,5.05-25.85,16.94-31.37,24.25-4.79,6.35-8.28,12.85-19.61,52-7.82,27-7.64,29.05-11.76,38.12-6.93,15.24-12.93,28.45-27.45,38.11-5.18,3.45-16.59,7-39.21,13.86-26,7.94-26.05,6.94-35.3,10.4a159.86,159.86,0,0,0-47,27.72c-12.76,10.58-26.63,22.08-35.29,41.58-1.85,4.15-15.49,36.26,0,69.3,7.12,15.2,18.13,25.74,27.45,34.66,14.76,14.13,26.28,19.89,39.21,38.11,6.85,9.66,9.93,17,7.84,24.26-1.12,3.92-3.83,8.2-11.76,13.86-15.16,10.82-24.35,8.83-47.06,17.32-15.18,5.68-12.58,7.14-43.13,20.8-20.7,9.25-19.9,7.69-23.53,10.39-18.53,13.79-19.1,39.21-19.61,62.37-.52,23.63,3.8,32.7,0,58.91-1.89,13.05-4.13,18.88-7.84,24.26-10.37,15-28.27,20.75-39.21,24.25-4.35,1.4-11.43,3.39-47.06,6.93s-31.53,1.85-39.21,3.47c-26.42,5.57-58.54,22.1-62.75,45h0a7.78,7.78,0,0,0-.69,5,7.55,7.55,0,0,0,.69,1.89l890.15.44h0Z" transform="translate(1 1)"/></g></svg>