<svg xmlns="http://www.w3.org/2000/svg" viewBox="0 0 271 553.5"><defs><style>.cls-1,.cls-2{fill:none;stroke:#000;stroke-miterlimit:10;}.cls-1{stroke-width:13px;}.cls-2{stroke-width:4px;}</style></defs><title>icon-iphone</title><g id="Calque_2" data-name="Calque 2"><path class="cls-1" d="M809,136.75q-.46,239-.94,478a44,44,0,0,1-11.34,19.55A41.61,41.61,0,0,1,777.82,645H583.19a41.1,41.1,0,0,1-25.51-17.59A43.14,43.14,0,0,1,551.06,602V137.73a41.22,41.22,0,0,1,11.34-22.48,38.66,38.66,0,0,1,20.79-10.75H776.88a38.82,38.82,0,0,1,19.84,9.77A41.5,41.5,0,0,1,809,136.75Z" transform="translate(-544.5 -98)"/><path class="cls-1" d="M610.5,104.5c-3.29,6.55-2.45,14.14,2,19s10.82,5,12,5l111-1a17.09,17.09,0,0,0,9-8,17.26,17.26,0,0,0,1-13" transform="translate(-544.5 -98)"/><path d="M614.42,111.47v3.42a1.5,1.5,0,0,0,2.94.4,4.7,4.7,0,0,0,0-1.94l0,.4a4,4,0,0,1,0-.85l0,.4.06-.27c.06-.25-.17.37,0,0,.09-.13,0-.08-.11.14.1-.1.05-.07-.17.11.33-.14-.32.09-.07,0l-.4.06h.2l-.4,0,.15,0c-.23-.11-.28-.13-.15-.05s.09.06,0,0-.12-.09,0,0,.27.28.4.43l.11.13-.08-.1.14.21a4.33,4.33,0,0,1,.31.51c.1.17.17.37.27.53-.2-.32-.07-.18,0,0s.07.21.11.32a6.7,6.7,0,0,1,.26,1.16l0-.4c0,.23,0,.45,0,.68a1.5,1.5,0,0,0,2.79.76,9.73,9.73,0,0,0,1.07-5.29,1.52,1.52,0,0,0-1.31-1.47,1.5,1.5,0,0,0-1.64,1.07c-.06.19-.12.38-.2.57s-.23.45,0,0a2.44,2.44,0,0,0-.1.24,10.59,10.59,0,0,1-.6,1.1l-.34.5c-.22.29.18-.22,0,0a2.11,2.11,0,0,1-.19.23,9.24,9.24,0,0,1-.87.9,1.51,1.51,0,0,0,0,2.12,1.54,1.54,0,0,0,2.12,0,11,11,0,0,0,3.09-4.9l-2.94-.4a9.75,9.75,0,0,1,0,1.87l0-.4a8.65,8.65,0,0,1-.29,1.32c-.06.21-.13.41-.21.62s.12-.24,0,0c0,.11-.1.22-.16.33l2.8.76a8.25,8.25,0,0,0-2.12-5.28,3.13,3.13,0,0,0-1.45-1,2.21,2.21,0,0,0-2.07.53,2.8,2.8,0,0,0-.78,1.35,5,5,0,0,0,0,1.89l0-.4a3.53,3.53,0,0,1,0,.86l0-.4a1.16,1.16,0,0,1,0,.18l2.95.4v-3.42a1.5,1.5,0,0,0-3,0Z" transform="translate(-544.5 -98)"/><path d="M630.17,117a30,30,0,0,0,9.16.62,1.51,1.51,0,0,0,.4-3,31,31,0,0,0-13.52-.68,1.48,1.48,0,0,0-1.07,1.64,1.53,1.53,0,0,0,1.47,1.3,40,40,0,0,0,8,.25,1.54,1.54,0,0,0,1.5-1.5,1.51,1.51,0,0,0-1.5-1.5,40,40,0,0,1-8-.25l.4,3a27.44,27.44,0,0,1,11.92.69l.4-2.95a27.31,27.31,0,0,1-8.36-.51,1.55,1.55,0,0,0-1.85,1,1.52,1.52,0,0,0,1,1.84Z" transform="translate(-544.5 -98)"/><path d="M615.77,112.07a32.26,32.26,0,0,0,.51,7.21,1.52,1.52,0,0,0,1.85,1,1.54,1.54,0,0,0,1-1.85c-.19-1.21-.37-2.43-.57-3.65s-.89-2.3-2.2-2.22a1.55,1.55,0,0,0-1.5,1.5,26.21,26.21,0,0,0,0,4.77,1.5,1.5,0,0,0,3,0,26.09,26.09,0,0,0,.14-3.95l-2.95.4a38.86,38.86,0,0,0,1.3,4.48c.47,1.3,2.54,1.55,2.9,0a61.38,61.38,0,0,1,3.63-12l-2.79-.76a43.22,43.22,0,0,1-.19,10.84l2.95.4.73-8.5-2.94.4c.23.77-.28,1.78-.5,2.52-.28.94-.57,1.87-.88,2.8q-.94,2.86-2.09,5.65l2.95.39a16.46,16.46,0,0,1,2.11-7.43l-2,.53c-.37-.18-.12-.4-.17-.09,0-.06,0,.45,0,.52l.09,1.54.19,3.24a1.53,1.53,0,0,0,2.26,1.29c1.63-.69,2.18-2.62,2.75-4.13q1-2.72,1.9-5.49h-2.89a8.08,8.08,0,0,1-1.46,6.88l2.79.76a53.51,53.51,0,0,1-.08-5.52c.07-1.93-2.93-1.93-3,0a53.51,53.51,0,0,0,.08,5.52,1.52,1.52,0,0,0,2.8.75,10.89,10.89,0,0,0,1.76-9.18,1.51,1.51,0,0,0-2.89,0c-.5,1.57-1,3.14-1.6,4.69-.25.67-.49,1.35-.77,2a1.76,1.76,0,0,1-.9,1.12l2.25,1.3-.26-4.36c-.07-1.25-.05-2.79-1.36-3.44a1.54,1.54,0,0,0-2.05.54,20,20,0,0,0-2.52,9,1.5,1.5,0,0,0,1.3,1.48,1.53,1.53,0,0,0,1.65-1.08c.82-2,1.58-4.09,2.26-6.17.33-1,.64-2,.94-3.08a5.77,5.77,0,0,0,.26-3.31,1.51,1.51,0,0,0-3,.4l-.73,8.5c-.15,1.67,2.69,2.08,2.94.4a45.83,45.83,0,0,0,.3-11.64,1.56,1.56,0,0,0-1.11-1.45,1.52,1.52,0,0,0-1.69.69A65.37,65.37,0,0,0,616.39,119h2.9a38.34,38.34,0,0,1-1.31-4.48,1.5,1.5,0,0,0-2.94.4,26.09,26.09,0,0,1-.14,3.95h3a26.21,26.21,0,0,1,0-4.77l-1.5,1.5h-.09l-.66-.38c-.08-.07,0,.3.06.41.07.42.13.84.2,1.26l.37,2.39,2.89-.8a28.64,28.64,0,0,1-.4-6.41c.08-1.93-2.92-1.92-3,0Z" transform="translate(-544.5 -98)"/><path d="M633.79,114.13c-2.5-1.93-4.71-3.81-7.64-5-1.95-.81-4.43.2-5.84,1.54-6.35,6,1,13.39,7.69,13.62,3.66.12,7.15-1.16,10.69-1.87a50.57,50.57,0,0,1,14.53-.59v-12l-28.9-.61c-4.76-.1-7.18,5.12-5.18,9,3.05,5.94,11.4,6.39,17.29,6.77,8.38.54,16.35-1,24.67-1.15,8-.18,15.84,1.42,23.75,2.14,8.51.78,16.59-.47,25-1.42,8.11-.91,15.84-.09,23.89,1,6.13.82,14.33-2.27,11.91-10.13-2.12-6.9-12.18-6.42-18-7.17-8.57-1.11-17.19-1.74-25.82-2-19.26-.69-38.53.14-57.79.5-7.71.14-7.74,12.14,0,12,15.74-.29,31.47-.9,47.21-.74,7.69.08,15.38.35,23,.93,3.83.29,7.65.65,11.46,1.12,2.68.33,8.49.27,10.88,1.67l-2.76-3.58q5.54-4.5,1.27-4.38l-3.6-.5c-2.32-.32-4.65-.64-7-.86a73,73,0,0,0-14.7.2c-9.42,1-18.27,2.19-27.77,1.14-9.24-1-18.13-2.43-27.43-1.34a96.09,96.09,0,0,1-14.78.79,60,60,0,0,1-6.7-.43,28.73,28.73,0,0,1-3.17-.65c-1.44-.53-1.61-.5-.52.1l-5.19,9,28.9.61c7.82.17,7.58-11.34,0-12a61.57,61.57,0,0,0-14.1.4c-2.17.32-4.28.75-6.4,1.25-.93.26-1.86.49-2.8.7-1.69-.17-1.74.4-.16,1.69l-1.54,5.84.58-.55L623,120.67c-.58-.24,2.25,1.87,2.34,2,2.58,2,6,2.46,8.49,0,2.09-2.05,2.56-6.51,0-8.49Z" transform="translate(-544.5 -98)"/></g><g id="Calque_3" data-name="Calque 3"><path class="cls-2" d="M671,315a15.51,15.51,0,1,1,15,15A15.7,15.7,0,0,1,671,315Z" transform="translate(-544.5 -98)"/><path class="cls-2" d="M659,314c.28-14.9,13.42-26.54,28-26,14.19.53,26.27,12.47,26,27-.28,14.9-13.42,26.54-28,26C670.81,340.47,658.73,328.53,659,314Z" transform="translate(-544.5 -98)"/><path class="cls-2" d="M632,311a11,11,0,1,1-10,10A11.18,11.18,0,0,1,632,311Z" transform="translate(-544.5 -98)"/><path class="cls-2" d="M633,303a19,19,0,1,1-19,18A19.13,19.13,0,0,1,633,303Z" transform="translate(-544.5 -98)"/><path class="cls-2" d="M713,412a15.68,15.68,0,0,1-9,4H622a14,14,0,0,1-10-6,13.26,13.26,0,0,1-2-8V359a13.92,13.92,0,0,1,13-12h81a15.68,15.68,0,0,1,9,4,16,16,0,0,1,5,11v39a16,16,0,0,1-5,11" transform="translate(-544.5 -98)"/><path class="cls-2" d="M750,346l-32,16v37l29,17a3.89,3.89,0,0,0,3,0,3.93,3.93,0,0,0,2-2q.5-32.5,1-65a3.24,3.24,0,0,0-2-3A2.06,2.06,0,0,0,750,346Z" transform="translate(-544.5 -98)"/></g></svg>