<svg id="Calque_2" data-name="Calque 2" xmlns="http://www.w3.org/2000/svg" viewBox="0 0 481.04 482.5"><defs><style>.cls-1{fill:none;stroke:#000;stroke-miterlimit:10;stroke-width:15px;}</style></defs><title>icon-abonnement</title><path class="cls-1" d="M633.5,471.5,591,471a13.84,13.84,0,0,1-13-12V164a14,14,0,0,1,6-10,13.52,13.52,0,0,1,9-2l179-1a16,16,0,0,1,11,5,15.68,15.68,0,0,1,4,9h0V459a17,17,0,0,1-12,13l-50.5-.5" transform="translate(-442.96 -143.5)"/><path class="cls-1" d="M656.5,383.5l54-1a17.72,17.72,0,0,1,13,13c1.72,7.88-2.77,16.45-11,20h-56a16.34,16.34,0,0,1,0-32Z" transform="translate(-442.96 -143.5)"/><path class="cls-1" d="M712.5,351.5h-58" transform="translate(-442.96 -143.5)"/><path class="cls-1" d="M728.5,318.5h-92" transform="translate(-442.96 -143.5)"/><path class="cls-1" d="M729.5,287.5l-54-1" transform="translate(-442.96 -143.5)"/><path class="cls-1" d="M657.5,286.5h-21" transform="translate(-442.96 -143.5)"/><path class="cls-1" d="M618.3,253.51l-.6-27" transform="translate(-442.96 -143.5)"/><path class="cls-1" d="M651.5,224.5v27" transform="translate(-442.96 -143.5)"/><path class="cls-1" d="M683.5,225.5v26" transform="translate(-442.96 -143.5)"/><path class="cls-1" d="M715.5,224.5v29" transform="translate(-442.96 -143.5)"/><path class="cls-1" d="M749.5,224.5q.5,14.5,1,29" transform="translate(-442.96 -143.5)"/><path class="cls-1" d="M729.5,190.5h-61" transform="translate(-442.96 -143.5)"/><path class="cls-1" d="M650.5,191.5l-13-1" transform="translate(-442.96 -143.5)"/><path class="cls-1" d="M811.5,181.5h89a17.66,17.66,0,0,1,11,6,17.43,17.43,0,0,1,4,10q.5,114.5,1,229a16.16,16.16,0,0,1-4,8c-5.32,5.68-13,5.1-14,5h-88" transform="translate(-442.96 -143.5)"/><path class="cls-1" d="M811.5,399.5h50c8.09-1.33,14.2-7.65,15-15,1-8.86-6-17.74-16-19l-49,1" transform="translate(-442.96 -143.5)"/><path class="cls-1" d="M811.5,334.5l22-1" transform="translate(-442.96 -143.5)"/><path class="cls-1" d="M849.5,302.5h-39" transform="translate(-442.96 -143.5)"/><path class="cls-1" d="M818.5,269.5q-.5-10-1-20" transform="translate(-442.96 -143.5)"/><path class="cls-1" d="M850.5,269.5q-.5-10-1-20" transform="translate(-442.96 -143.5)"/><path class="cls-1" d="M883.5,268.5q-.5-9.5-1-19" transform="translate(-442.96 -143.5)"/><path class="cls-1" d="M866.5,212.5h-56" transform="translate(-442.96 -143.5)"/><path class="cls-1" d="M554.5,214.5l-23-1" transform="translate(-442.96 -143.5)"/><path class="cls-1" d="M514.5,214.5h-15" transform="translate(-442.96 -143.5)"/><path class="cls-1" d="M484.5,269.5v-20" transform="translate(-442.96 -143.5)"/><path class="cls-1" d="M515.5,270.5v-22" transform="translate(-442.96 -143.5)"/><path class="cls-1" d="M547.5,270.5q-.5-10.5-1-21" transform="translate(-442.96 -143.5)"/><path class="cls-1" d="M554.5,301.5l-47-1" transform="translate(-442.96 -143.5)"/><path class="cls-1" d="M554.5,333.5l-33-1" transform="translate(-442.96 -143.5)"/><path class="cls-1" d="M555.5,367.5h-50c-7.52.94-13.55,6.28-15,13-1.79,8.29,3.68,17.41,13,20h51" transform="translate(-442.96 -143.5)"/><path class="cls-1" d="M554.5,439.5l-91,1a17.36,17.36,0,0,1-13-18v-225a17.14,17.14,0,0,1,17-15l88,1" transform="translate(-442.96 -143.5)"/><path class="cls-1" d="M666.5,615.5l-54-39a14.82,14.82,0,0,1,18-22l35,20q1-58.5,2-117a16.66,16.66,0,0,1,32,0v66c2.74-8.8,10-14.41,17-14a15.37,15.37,0,0,1,11,6c3.4,4.61,2.61,9.89,4,10,1.61.13,1.56-7,7-12a14.51,14.51,0,0,1,10-4c5.56.19,9.23,4.13,10,5,3.77,4.26,3.39,8.93,5,9,2,.08,1.86-7.12,7-11,4.61-3.48,10.79-2.24,12-2,10.85,2.18,14.84,14.48,15,15v85a11.05,11.05,0,0,1-3,5,11.5,11.5,0,0,1-8,3Z" transform="translate(-442.96 -143.5)"/></svg>