<svg id="Calque_2" data-name="Calque 2" xmlns="http://www.w3.org/2000/svg" viewBox="0 0 394.21 400.03"><defs><style>.cls-1{fill:none;stroke:#000;stroke-miterlimit:10;stroke-width:7px;}</style></defs><title>menu-icon</title><path class="cls-1" d="M643,123c50.88.06,92.21,42.91,93,93,.81,51.43-41.37,95.95-93,96-54.08.05-96.51-48.71-93-101C553.17,163.66,593.35,122.94,643,123Z" transform="translate(-345.4 -119.33)"/><path class="cls-1" d="M442.1,122.83c50.88.06,92.21,42.92,93,93,.8,51.43-41.37,95.95-93,96-54.08.05-96.51-48.7-93-101C352.27,163.49,392.45,122.77,442.1,122.83Z" transform="translate(-345.4 -119.33)"/><path class="cls-1" d="M442.1,326.86c50.88.06,92.21,42.92,93,93,.8,51.43-41.37,95.95-93,96-54.08.06-96.51-48.7-93-101C352.27,367.52,392.45,326.81,442.1,326.86Z" transform="translate(-345.4 -119.33)"/><path class="cls-1" d="M643.1,326.52c50.88.06,92.21,42.91,93,93,.8,51.43-41.37,96-93,96-54.08.05-96.51-48.71-93-101C553.27,367.18,593.45,326.46,643.1,326.52Z" transform="translate(-345.4 -119.33)"/></svg>