<?xml version="1.0" encoding="utf-8"?>
<!-- Generator: Adobe Illustrator 24.0.1, SVG Export Plug-In . SVG Version: 6.00 Build 0)  -->
<svg version="1.1" id="Calque_1" xmlns="http://www.w3.org/2000/svg" xmlns:xlink="http://www.w3.org/1999/xlink" x="0px" y="0px"
	 viewBox="0 0 512 512" style="enable-background:new 0 0 512 512;" xml:space="preserve">
<style type="text/css">
	.st0{fill:#FFFFFF;}
</style>
<g>
	<g>
		<path class="st0" d="M455.1,137.9l-32.4,32.4l-81-81.1l32.4-32.4c6.6-6.6,18.1-6.6,24.7,0l56.3,56.4
			C461.9,120,461.9,131.1,455.1,137.9z M184.4,408.9l-81-81.1l209.4-209.7l81,81.1L184.4,408.9L184.4,408.9z M84.7,366.9l60.6,60.7
			l-84.4,23.8L84.7,366.9L84.7,366.9z M484,84.3l-56.3-56.4c-11-11-50.7-31.8-82.4,0L60,313.4c-2.5,2.5-4.3,5.5-5.2,8.9l-43,153.1
			c-2,7.1,0.1,14.7,5.2,20c5.2,5.3,15.6,6.2,20,5.2l153-43.1c3.4-0.9,6.4-2.7,8.9-5.2L484,166.8C506.7,144.1,506.7,107.1,484,84.3
			L484,84.3z"/>
	</g>
</g>
</svg>
