<?xml version="1.0" encoding="utf-8"?>
<!-- Generator: Adobe Illustrator 24.0.1, SVG Export Plug-In . SVG Version: 6.00 Build 0)  -->
<svg version="1.1" id="Calque_1" xmlns="http://www.w3.org/2000/svg" xmlns:xlink="http://www.w3.org/1999/xlink" x="0px" y="0px"
	 viewBox="0 0 2048 2732" style="enable-background:new 0 0 2048 2732;" xml:space="preserve">
<style type="text/css">
	.st0{fill:#7670F0;stroke:#000000;stroke-width:5;stroke-miterlimit:10;}
	.st1{fill:#C4C4C4;stroke:#000000;stroke-miterlimit:10;}
</style>
<path class="st0" d="M-0.5,687.5c12.06,3.1,130.5,35.39,163,132c20.96,62.29,0.32,134.56-8,165c-16.86,61.7-32.89,57.15-47,110
	c-7.23,27.1-31.87,119.37,18,191c60.52,86.92,185.32,78.17,202,77c7.25-0.51,142.22-11.83,191-106c30.84-59.54-4.57-90.84,25-147
	c37.07-70.41,135.23-101.97,209-103c107.54-1.5,127.43,62.38,272,77c55.13,5.58,108.31,10.96,165-18
	c66.73-34.09,125.16-109.02,125-187c-0.14-69.5-46.7-82.63-37-136c13.43-73.86,106.19-68.27,147-158c38.07-83.71-2.31-177.3-8-190
	c-31.62-70.59-71.44-79.5-110-140c-29.56-46.38-57.61-123.76-36-255c-423.67,0-847.33,0-1271,0C-0.5,228.83-0.5,458.17-0.5,687.5z"
	/>
<path class="st1" d="M1770.5,1848.5"/>
</svg>
